<mxfile host="app.diagrams.net" modified="2024-02-05T00:11:35.347Z" agent="Mozilla/5.0 (Macintosh; Intel Mac OS X 10_15_7) AppleWebKit/537.36 (KHTML, like Gecko) Chrome/120.0.0.0 Safari/537.36" etag="eDAtCp3LF4hbqPwJv4ez" version="23.1.1" type="github">
  <diagram name="Page-1" id="cYGsJFzPVr4hY669UNgf">
    <mxGraphModel dx="1700" dy="843" grid="1" gridSize="10" guides="1" tooltips="1" connect="1" arrows="1" fold="1" page="1" pageScale="1" pageWidth="850" pageHeight="1100" math="0" shadow="0">
      <root>
        <mxCell id="0" />
        <mxCell id="1" parent="0" />
        <mxCell id="bZ-zRYonK2PxEfOanbGE-1" value="" style="endArrow=none;dashed=1;html=1;dashPattern=1 3;strokeWidth=2;rounded=0;entryX=0.5;entryY=1;entryDx=0;entryDy=0;" parent="1" edge="1">
          <mxGeometry width="50" height="50" relative="1" as="geometry">
            <mxPoint x="400" y="80" as="sourcePoint" />
            <mxPoint x="400" y="50" as="targetPoint" />
            <Array as="points">
              <mxPoint x="400" y="80" />
            </Array>
          </mxGeometry>
        </mxCell>
        <mxCell id="bZ-zRYonK2PxEfOanbGE-2" value="" style="endArrow=none;html=1;rounded=0;exitX=0.5;exitY=0;exitDx=0;exitDy=0;" parent="1" edge="1">
          <mxGeometry width="50" height="50" relative="1" as="geometry">
            <mxPoint x="399.38" y="112" as="sourcePoint" />
            <mxPoint x="399.38" y="70" as="targetPoint" />
          </mxGeometry>
        </mxCell>
        <mxCell id="bZ-zRYonK2PxEfOanbGE-3" value="Offcanvas Element:&#xa;&lt;div&gt;&#xa;" style="swimlane;fontStyle=0;align=center;verticalAlign=top;childLayout=stackLayout;horizontal=1;startSize=50;horizontalStack=0;resizeParent=1;resizeLast=0;collapsible=1;marginBottom=0;rounded=0;shadow=0;strokeWidth=1;fontSize=11;" parent="1" vertex="1">
          <mxGeometry x="40" y="203" width="100" height="40" as="geometry">
            <mxRectangle x="130" y="380" width="160" height="26" as="alternateBounds" />
          </mxGeometry>
        </mxCell>
        <mxCell id="bZ-zRYonK2PxEfOanbGE-4" value="Grid Container:&#xa;&lt;div&gt;&#xa;" style="swimlane;fontStyle=0;align=center;verticalAlign=top;childLayout=stackLayout;horizontal=1;startSize=50;horizontalStack=0;resizeParent=1;resizeLast=0;collapsible=1;marginBottom=0;rounded=0;shadow=0;strokeWidth=1;fontSize=11;" parent="1" vertex="1">
          <mxGeometry x="350" y="112" width="100" height="40" as="geometry">
            <mxRectangle x="130" y="380" width="160" height="26" as="alternateBounds" />
          </mxGeometry>
        </mxCell>
        <mxCell id="bZ-zRYonK2PxEfOanbGE-5" value="Element:&#xa;&lt;a&gt;&#xa;" style="swimlane;fontStyle=0;align=center;verticalAlign=top;childLayout=stackLayout;horizontal=1;startSize=50;horizontalStack=0;resizeParent=1;resizeLast=0;collapsible=1;marginBottom=0;rounded=0;shadow=0;strokeWidth=1;fontSize=11;" parent="1" vertex="1">
          <mxGeometry x="40" y="263" width="100" height="40" as="geometry">
            <mxRectangle x="130" y="380" width="160" height="26" as="alternateBounds" />
          </mxGeometry>
        </mxCell>
        <mxCell id="bZ-zRYonK2PxEfOanbGE-6" value="" style="endArrow=none;html=1;rounded=0;entryX=0.5;entryY=1;entryDx=0;entryDy=0;" parent="1" target="bZ-zRYonK2PxEfOanbGE-4" edge="1">
          <mxGeometry width="50" height="50" relative="1" as="geometry">
            <mxPoint x="400" y="183" as="sourcePoint" />
            <mxPoint x="420" y="253" as="targetPoint" />
          </mxGeometry>
        </mxCell>
        <mxCell id="bZ-zRYonK2PxEfOanbGE-7" value="" style="endArrow=none;html=1;rounded=0;exitX=0.5;exitY=0;exitDx=0;exitDy=0;" parent="1" source="bZ-zRYonK2PxEfOanbGE-3" edge="1">
          <mxGeometry width="50" height="50" relative="1" as="geometry">
            <mxPoint x="160" y="303" as="sourcePoint" />
            <mxPoint x="90" y="183" as="targetPoint" />
          </mxGeometry>
        </mxCell>
        <mxCell id="bZ-zRYonK2PxEfOanbGE-8" value="" style="endArrow=none;html=1;rounded=0;entryX=0;entryY=0.5;entryDx=0;entryDy=0;" parent="1" target="bZ-zRYonK2PxEfOanbGE-3" edge="1">
          <mxGeometry width="50" height="50" relative="1" as="geometry">
            <mxPoint x="20" y="223" as="sourcePoint" />
            <mxPoint x="210" y="253" as="targetPoint" />
          </mxGeometry>
        </mxCell>
        <mxCell id="bZ-zRYonK2PxEfOanbGE-9" value="" style="endArrow=none;html=1;rounded=0;entryX=0;entryY=0.5;entryDx=0;entryDy=0;" parent="1" target="bZ-zRYonK2PxEfOanbGE-5" edge="1">
          <mxGeometry width="50" height="50" relative="1" as="geometry">
            <mxPoint x="20" y="283" as="sourcePoint" />
            <mxPoint x="210" y="253" as="targetPoint" />
          </mxGeometry>
        </mxCell>
        <mxCell id="bZ-zRYonK2PxEfOanbGE-10" value="href:&#xa;&quot;Retrospective&quot;&#xa;" style="swimlane;fontStyle=0;align=center;verticalAlign=top;childLayout=stackLayout;horizontal=1;startSize=50;horizontalStack=0;resizeParent=1;resizeLast=0;collapsible=1;marginBottom=0;rounded=0;shadow=0;strokeWidth=1;fontSize=11;fillColor=#d5e8d4;strokeColor=#82b366;" parent="1" vertex="1">
          <mxGeometry x="160" y="263" width="100" height="40" as="geometry">
            <mxRectangle x="130" y="380" width="160" height="26" as="alternateBounds" />
          </mxGeometry>
        </mxCell>
        <mxCell id="bZ-zRYonK2PxEfOanbGE-11" value="" style="endArrow=none;html=1;rounded=0;entryX=0;entryY=0.5;entryDx=0;entryDy=0;exitX=1;exitY=0.5;exitDx=0;exitDy=0;" parent="1" source="bZ-zRYonK2PxEfOanbGE-5" target="bZ-zRYonK2PxEfOanbGE-10" edge="1">
          <mxGeometry width="50" height="50" relative="1" as="geometry">
            <mxPoint x="160" y="303" as="sourcePoint" />
            <mxPoint x="210" y="253" as="targetPoint" />
          </mxGeometry>
        </mxCell>
        <mxCell id="bZ-zRYonK2PxEfOanbGE-12" value="Content Element:&#xa;&lt;div&gt;&#xa;" style="swimlane;fontStyle=0;align=center;verticalAlign=top;childLayout=stackLayout;horizontal=1;startSize=50;horizontalStack=0;resizeParent=1;resizeLast=0;collapsible=1;marginBottom=0;rounded=0;shadow=0;strokeWidth=1;fontSize=11;" parent="1" vertex="1">
          <mxGeometry x="370" y="203" width="100" height="40" as="geometry">
            <mxRectangle x="130" y="380" width="160" height="26" as="alternateBounds" />
          </mxGeometry>
        </mxCell>
        <mxCell id="bZ-zRYonK2PxEfOanbGE-13" value="" style="endArrow=none;html=1;rounded=0;exitX=0.5;exitY=0;exitDx=0;exitDy=0;" parent="1" source="bZ-zRYonK2PxEfOanbGE-12" edge="1">
          <mxGeometry width="50" height="50" relative="1" as="geometry">
            <mxPoint x="210" y="303" as="sourcePoint" />
            <mxPoint x="420" y="183" as="targetPoint" />
          </mxGeometry>
        </mxCell>
        <mxCell id="bZ-zRYonK2PxEfOanbGE-14" value="Template Text:&#xa;&quot;{ getContent }&quot;&#xa;" style="swimlane;fontStyle=0;align=center;verticalAlign=top;childLayout=stackLayout;horizontal=1;startSize=50;horizontalStack=0;resizeParent=1;resizeLast=0;collapsible=1;marginBottom=0;rounded=0;shadow=0;strokeWidth=1;fontSize=11;" parent="1" vertex="1">
          <mxGeometry x="370" y="263" width="100" height="40" as="geometry">
            <mxRectangle x="130" y="380" width="160" height="26" as="alternateBounds" />
          </mxGeometry>
        </mxCell>
        <mxCell id="bZ-zRYonK2PxEfOanbGE-15" value="" style="endArrow=none;html=1;rounded=0;entryX=0.5;entryY=1;entryDx=0;entryDy=0;exitX=0.5;exitY=0;exitDx=0;exitDy=0;" parent="1" source="bZ-zRYonK2PxEfOanbGE-14" target="bZ-zRYonK2PxEfOanbGE-12" edge="1">
          <mxGeometry width="50" height="50" relative="1" as="geometry">
            <mxPoint x="210" y="303" as="sourcePoint" />
            <mxPoint x="260" y="253" as="targetPoint" />
          </mxGeometry>
        </mxCell>
        <mxCell id="bZ-zRYonK2PxEfOanbGE-16" value="" style="endArrow=none;html=1;rounded=0;" parent="1" edge="1">
          <mxGeometry width="50" height="50" relative="1" as="geometry">
            <mxPoint x="90" y="183" as="sourcePoint" />
            <mxPoint x="420" y="183" as="targetPoint" />
          </mxGeometry>
        </mxCell>
        <mxCell id="bZ-zRYonK2PxEfOanbGE-17" value="" style="endArrow=none;html=1;rounded=0;" parent="1" edge="1">
          <mxGeometry width="50" height="50" relative="1" as="geometry">
            <mxPoint x="20" y="283" as="sourcePoint" />
            <mxPoint x="20" y="223" as="targetPoint" />
          </mxGeometry>
        </mxCell>
        <mxCell id="bZ-zRYonK2PxEfOanbGE-18" value="" style="endArrow=none;dashed=1;html=1;dashPattern=1 3;strokeWidth=2;rounded=0;" parent="1" edge="1">
          <mxGeometry width="50" height="50" relative="1" as="geometry">
            <mxPoint y="183" as="sourcePoint" />
            <mxPoint x="90" y="183" as="targetPoint" />
          </mxGeometry>
        </mxCell>
        <mxCell id="bZ-zRYonK2PxEfOanbGE-20" value="" style="endArrow=none;html=1;rounded=0;entryX=0.5;entryY=1;entryDx=0;entryDy=0;" parent="1" edge="1">
          <mxGeometry width="50" height="50" relative="1" as="geometry">
            <mxPoint x="418" y="340" as="sourcePoint" />
            <mxPoint x="418" y="303" as="targetPoint" />
          </mxGeometry>
        </mxCell>
        <mxCell id="bZ-zRYonK2PxEfOanbGE-38" value="" style="endArrow=none;html=1;rounded=0;" parent="1" edge="1">
          <mxGeometry width="50" height="50" relative="1" as="geometry">
            <mxPoint x="840" y="620" as="sourcePoint" />
            <mxPoint x="840" y="340" as="targetPoint" />
          </mxGeometry>
        </mxCell>
        <mxCell id="bZ-zRYonK2PxEfOanbGE-39" value="Element&#xa;&lt;div&gt;&#xa;" style="swimlane;fontStyle=0;align=center;verticalAlign=top;childLayout=stackLayout;horizontal=1;startSize=50;horizontalStack=0;resizeParent=1;resizeLast=0;collapsible=1;marginBottom=0;rounded=0;shadow=0;strokeWidth=1;fontSize=11;" parent="1" vertex="1">
          <mxGeometry x="70" y="360" width="100" height="40" as="geometry">
            <mxRectangle x="130" y="380" width="160" height="26" as="alternateBounds" />
          </mxGeometry>
        </mxCell>
        <mxCell id="bZ-zRYonK2PxEfOanbGE-40" value="Element&#xa;&lt;button&gt;&#xa;&#xa;&#xa;" style="swimlane;fontStyle=0;align=center;verticalAlign=top;childLayout=stackLayout;horizontal=1;startSize=50;horizontalStack=0;resizeParent=1;resizeLast=0;collapsible=1;marginBottom=0;rounded=0;shadow=0;strokeWidth=1;fontSize=11;" parent="1" vertex="1">
          <mxGeometry x="10" y="530" width="100" height="40" as="geometry">
            <mxRectangle x="130" y="380" width="160" height="26" as="alternateBounds" />
          </mxGeometry>
        </mxCell>
        <mxCell id="bZ-zRYonK2PxEfOanbGE-41" value="" style="endArrow=none;html=1;rounded=0;entryX=0.25;entryY=1;entryDx=0;entryDy=0;exitX=0.5;exitY=0;exitDx=0;exitDy=0;" parent="1" source="bZ-zRYonK2PxEfOanbGE-121" target="bZ-zRYonK2PxEfOanbGE-39" edge="1">
          <mxGeometry width="50" height="50" relative="1" as="geometry">
            <mxPoint x="49.68000000000001" y="518" as="sourcePoint" />
            <mxPoint x="49.68000000000001" y="468" as="targetPoint" />
          </mxGeometry>
        </mxCell>
        <mxCell id="bZ-zRYonK2PxEfOanbGE-43" value="" style="endArrow=none;html=1;rounded=0;entryX=0.5;entryY=1;entryDx=0;entryDy=0;exitX=0.5;exitY=0;exitDx=0;exitDy=0;" parent="1" source="bZ-zRYonK2PxEfOanbGE-42" target="bZ-zRYonK2PxEfOanbGE-40" edge="1">
          <mxGeometry width="50" height="50" relative="1" as="geometry">
            <mxPoint x="-15" y="640" as="sourcePoint" />
            <mxPoint x="35" y="590" as="targetPoint" />
          </mxGeometry>
        </mxCell>
        <mxCell id="bZ-zRYonK2PxEfOanbGE-46" value="Element&#xa;&lt;span&gt;&#xa;" style="swimlane;fontStyle=0;align=center;verticalAlign=top;childLayout=stackLayout;horizontal=1;startSize=50;horizontalStack=0;resizeParent=1;resizeLast=0;collapsible=1;marginBottom=0;rounded=0;shadow=0;strokeWidth=1;fontSize=11;" parent="1" vertex="1">
          <mxGeometry x="120" y="410" width="100" height="40" as="geometry">
            <mxRectangle x="130" y="380" width="160" height="26" as="alternateBounds" />
          </mxGeometry>
        </mxCell>
        <mxCell id="bZ-zRYonK2PxEfOanbGE-47" value="" style="endArrow=none;html=1;rounded=0;entryX=0.75;entryY=1;entryDx=0;entryDy=0;exitX=0.5;exitY=0;exitDx=0;exitDy=0;" parent="1" source="bZ-zRYonK2PxEfOanbGE-46" target="bZ-zRYonK2PxEfOanbGE-39" edge="1">
          <mxGeometry width="50" height="50" relative="1" as="geometry">
            <mxPoint x="223" y="520" as="sourcePoint" />
            <mxPoint x="273" y="470" as="targetPoint" />
          </mxGeometry>
        </mxCell>
        <mxCell id="bZ-zRYonK2PxEfOanbGE-48" value="Displayed Text:&#xa;&quot;{ RetrospectiveName }&quot;&#xa;" style="swimlane;fontStyle=0;align=center;verticalAlign=top;childLayout=stackLayout;horizontal=1;startSize=50;horizontalStack=0;resizeParent=1;resizeLast=0;collapsible=1;marginBottom=0;rounded=0;shadow=0;strokeWidth=1;fontSize=11;" parent="1" vertex="1">
          <mxGeometry x="102" y="480" width="136" height="40" as="geometry">
            <mxRectangle x="130" y="380" width="160" height="26" as="alternateBounds" />
          </mxGeometry>
        </mxCell>
        <mxCell id="bZ-zRYonK2PxEfOanbGE-49" value="" style="endArrow=none;html=1;rounded=0;entryX=0.5;entryY=1;entryDx=0;entryDy=0;exitX=0.5;exitY=0;exitDx=0;exitDy=0;" parent="1" source="bZ-zRYonK2PxEfOanbGE-48" target="bZ-zRYonK2PxEfOanbGE-46" edge="1">
          <mxGeometry width="50" height="50" relative="1" as="geometry">
            <mxPoint x="233" y="520" as="sourcePoint" />
            <mxPoint x="283" y="470" as="targetPoint" />
          </mxGeometry>
        </mxCell>
        <mxCell id="bZ-zRYonK2PxEfOanbGE-50" value="" style="endArrow=none;html=1;rounded=0;entryX=0.5;entryY=0;entryDx=0;entryDy=0;" parent="1" target="bZ-zRYonK2PxEfOanbGE-39" edge="1">
          <mxGeometry width="50" height="50" relative="1" as="geometry">
            <mxPoint x="120" y="340" as="sourcePoint" />
            <mxPoint x="120" y="440" as="targetPoint" />
          </mxGeometry>
        </mxCell>
        <mxCell id="bZ-zRYonK2PxEfOanbGE-56" value="" style="endArrow=none;html=1;rounded=0;" parent="1" edge="1">
          <mxGeometry width="50" height="50" relative="1" as="geometry">
            <mxPoint x="300" y="340" as="sourcePoint" />
            <mxPoint x="300" y="400" as="targetPoint" />
          </mxGeometry>
        </mxCell>
        <mxCell id="bZ-zRYonK2PxEfOanbGE-57" value="Title&#xa;&lt;span&gt;&#xa;" style="swimlane;fontStyle=0;align=center;verticalAlign=top;childLayout=stackLayout;horizontal=1;startSize=50;horizontalStack=0;resizeParent=1;resizeLast=0;collapsible=1;marginBottom=0;rounded=0;shadow=0;strokeWidth=1;fontSize=11;" parent="1" vertex="1">
          <mxGeometry x="300" y="570" width="60" height="40" as="geometry">
            <mxRectangle x="130" y="380" width="160" height="26" as="alternateBounds" />
          </mxGeometry>
        </mxCell>
        <mxCell id="bZ-zRYonK2PxEfOanbGE-63" value="" style="endArrow=none;html=1;rounded=0;entryX=0.5;entryY=1;entryDx=0;entryDy=0;exitX=0.5;exitY=0;exitDx=0;exitDy=0;" parent="1" source="bZ-zRYonK2PxEfOanbGE-57" target="bZ-zRYonK2PxEfOanbGE-64" edge="1">
          <mxGeometry width="50" height="50" relative="1" as="geometry">
            <mxPoint x="601.5" y="459" as="sourcePoint" />
            <mxPoint x="493" y="491" as="targetPoint" />
          </mxGeometry>
        </mxCell>
        <mxCell id="bZ-zRYonK2PxEfOanbGE-64" value="Element&#xa;&lt;div&gt;&#xa;" style="swimlane;fontStyle=0;align=center;verticalAlign=top;childLayout=stackLayout;horizontal=1;startSize=50;horizontalStack=0;resizeParent=1;resizeLast=0;collapsible=1;marginBottom=0;rounded=0;shadow=0;strokeWidth=1;fontSize=11;" parent="1" vertex="1">
          <mxGeometry x="254" y="360" width="100" height="40" as="geometry">
            <mxRectangle x="130" y="380" width="160" height="26" as="alternateBounds" />
          </mxGeometry>
        </mxCell>
        <mxCell id="bZ-zRYonK2PxEfOanbGE-65" value="Element:&#xa;&lt;img&gt;&#xa;" style="swimlane;fontStyle=0;align=center;verticalAlign=top;childLayout=stackLayout;horizontal=1;startSize=50;horizontalStack=0;resizeParent=1;resizeLast=0;collapsible=1;marginBottom=0;rounded=0;shadow=0;strokeWidth=1;fontSize=11;" parent="1" vertex="1">
          <mxGeometry x="334" y="520" width="60" height="40" as="geometry">
            <mxRectangle x="130" y="380" width="160" height="26" as="alternateBounds" />
          </mxGeometry>
        </mxCell>
        <mxCell id="bZ-zRYonK2PxEfOanbGE-66" value="" style="endArrow=none;html=1;rounded=0;exitX=0.5;exitY=0;exitDx=0;exitDy=0;entryX=0.5;entryY=1;entryDx=0;entryDy=0;" parent="1" source="bZ-zRYonK2PxEfOanbGE-65" target="bZ-zRYonK2PxEfOanbGE-64" edge="1">
          <mxGeometry width="50" height="50" relative="1" as="geometry">
            <mxPoint x="619" y="437" as="sourcePoint" />
            <mxPoint x="303" y="440" as="targetPoint" />
          </mxGeometry>
        </mxCell>
        <mxCell id="bZ-zRYonK2PxEfOanbGE-67" value="" style="endArrow=none;html=1;rounded=0;entryX=0.5;entryY=1;entryDx=0;entryDy=0;exitX=0.5;exitY=0;exitDx=0;exitDy=0;" parent="1" source="bZ-zRYonK2PxEfOanbGE-68" target="bZ-zRYonK2PxEfOanbGE-64" edge="1">
          <mxGeometry width="50" height="50" relative="1" as="geometry">
            <mxPoint x="589" y="587" as="sourcePoint" />
            <mxPoint x="669" y="387" as="targetPoint" />
          </mxGeometry>
        </mxCell>
        <mxCell id="bZ-zRYonK2PxEfOanbGE-68" value="CardText&#xa;&lt;p&gt;&#xa;&#xa;" style="swimlane;fontStyle=0;align=center;verticalAlign=top;childLayout=stackLayout;horizontal=1;startSize=50;horizontalStack=0;resizeParent=1;resizeLast=0;collapsible=1;marginBottom=0;rounded=0;shadow=0;strokeWidth=1;fontSize=11;" parent="1" vertex="1">
          <mxGeometry x="234" y="620" width="90" height="40" as="geometry">
            <mxRectangle x="130" y="380" width="160" height="26" as="alternateBounds" />
          </mxGeometry>
        </mxCell>
        <mxCell id="bZ-zRYonK2PxEfOanbGE-69" value="Element:&#xa;&lt;img&gt;&#xa;" style="swimlane;fontStyle=0;align=center;verticalAlign=top;childLayout=stackLayout;horizontal=1;startSize=50;horizontalStack=0;resizeParent=1;resizeLast=0;collapsible=1;marginBottom=0;rounded=0;shadow=0;strokeWidth=1;fontSize=11;" parent="1" vertex="1">
          <mxGeometry x="214" y="540" width="60" height="40" as="geometry">
            <mxRectangle x="130" y="380" width="160" height="26" as="alternateBounds" />
          </mxGeometry>
        </mxCell>
        <mxCell id="bZ-zRYonK2PxEfOanbGE-70" value="" style="endArrow=none;html=1;rounded=0;entryX=0.5;entryY=1;entryDx=0;entryDy=0;exitX=0.5;exitY=0;exitDx=0;exitDy=0;" parent="1" source="bZ-zRYonK2PxEfOanbGE-69" target="bZ-zRYonK2PxEfOanbGE-64" edge="1">
          <mxGeometry width="50" height="50" relative="1" as="geometry">
            <mxPoint x="619" y="607" as="sourcePoint" />
            <mxPoint x="669" y="557" as="targetPoint" />
          </mxGeometry>
        </mxCell>
        <mxCell id="bZ-zRYonK2PxEfOanbGE-71" value="Element&#xa;&lt;div&gt;&#xa;" style="swimlane;fontStyle=0;align=center;verticalAlign=top;childLayout=stackLayout;horizontal=1;startSize=50;horizontalStack=0;resizeParent=1;resizeLast=0;collapsible=1;marginBottom=0;rounded=0;shadow=0;strokeWidth=1;fontSize=11;" parent="1" vertex="1">
          <mxGeometry x="690" y="600" width="100" height="40" as="geometry">
            <mxRectangle x="130" y="380" width="160" height="26" as="alternateBounds" />
          </mxGeometry>
        </mxCell>
        <mxCell id="bZ-zRYonK2PxEfOanbGE-73" value="Element&#xa;&lt;Span&gt;&#xa;" style="swimlane;fontStyle=0;align=center;verticalAlign=top;childLayout=stackLayout;horizontal=1;startSize=50;horizontalStack=0;resizeParent=1;resizeLast=0;collapsible=1;marginBottom=0;rounded=0;shadow=0;strokeWidth=1;fontSize=11;" parent="1" vertex="1">
          <mxGeometry x="690" y="731" width="100" height="40" as="geometry">
            <mxRectangle x="130" y="380" width="160" height="26" as="alternateBounds" />
          </mxGeometry>
        </mxCell>
        <mxCell id="bZ-zRYonK2PxEfOanbGE-74" value="Element:&#xa;&lt;img&gt;&#xa;" style="swimlane;fontStyle=0;align=center;verticalAlign=top;childLayout=stackLayout;horizontal=1;startSize=50;horizontalStack=0;resizeParent=1;resizeLast=0;collapsible=1;marginBottom=0;rounded=0;shadow=0;strokeWidth=1;fontSize=11;" parent="1" vertex="1">
          <mxGeometry x="670" y="790" width="60" height="40" as="geometry">
            <mxRectangle x="130" y="380" width="160" height="26" as="alternateBounds" />
          </mxGeometry>
        </mxCell>
        <mxCell id="bZ-zRYonK2PxEfOanbGE-75" value="Text&#xa;&quot;Add Task&quot;&#xa;" style="swimlane;fontStyle=0;align=center;verticalAlign=top;childLayout=stackLayout;horizontal=1;startSize=50;horizontalStack=0;resizeParent=1;resizeLast=0;collapsible=1;marginBottom=0;rounded=0;shadow=0;strokeWidth=1;fontSize=11;" parent="1" vertex="1">
          <mxGeometry x="750" y="790" width="90" height="40" as="geometry">
            <mxRectangle x="130" y="380" width="160" height="26" as="alternateBounds" />
          </mxGeometry>
        </mxCell>
        <mxCell id="bZ-zRYonK2PxEfOanbGE-76" value="Element&#xa;&lt;a&gt;&#xa;" style="swimlane;fontStyle=0;align=center;verticalAlign=top;childLayout=stackLayout;horizontal=1;startSize=50;horizontalStack=0;resizeParent=1;resizeLast=0;collapsible=1;marginBottom=0;rounded=0;shadow=0;strokeWidth=1;fontSize=11;" parent="1" vertex="1">
          <mxGeometry x="715" y="660" width="50" height="40" as="geometry">
            <mxRectangle x="130" y="380" width="160" height="26" as="alternateBounds" />
          </mxGeometry>
        </mxCell>
        <mxCell id="bZ-zRYonK2PxEfOanbGE-77" value="" style="endArrow=none;html=1;rounded=0;entryX=0.5;entryY=1;entryDx=0;entryDy=0;exitX=0.5;exitY=0;exitDx=0;exitDy=0;" parent="1" source="bZ-zRYonK2PxEfOanbGE-76" target="bZ-zRYonK2PxEfOanbGE-71" edge="1">
          <mxGeometry width="50" height="50" relative="1" as="geometry">
            <mxPoint x="910" y="581" as="sourcePoint" />
            <mxPoint x="960" y="531" as="targetPoint" />
          </mxGeometry>
        </mxCell>
        <mxCell id="bZ-zRYonK2PxEfOanbGE-78" value="" style="endArrow=none;html=1;rounded=0;exitX=0.5;exitY=1;exitDx=0;exitDy=0;entryX=0.5;entryY=0;entryDx=0;entryDy=0;" parent="1" source="bZ-zRYonK2PxEfOanbGE-76" target="bZ-zRYonK2PxEfOanbGE-73" edge="1">
          <mxGeometry width="50" height="50" relative="1" as="geometry">
            <mxPoint x="910" y="601" as="sourcePoint" />
            <mxPoint x="960" y="551" as="targetPoint" />
          </mxGeometry>
        </mxCell>
        <mxCell id="bZ-zRYonK2PxEfOanbGE-79" value="" style="endArrow=none;html=1;rounded=0;entryX=0.5;entryY=1;entryDx=0;entryDy=0;" parent="1" target="bZ-zRYonK2PxEfOanbGE-73" edge="1">
          <mxGeometry width="50" height="50" relative="1" as="geometry">
            <mxPoint x="700" y="790" as="sourcePoint" />
            <mxPoint x="922.5" y="751" as="targetPoint" />
          </mxGeometry>
        </mxCell>
        <mxCell id="bZ-zRYonK2PxEfOanbGE-80" value="" style="endArrow=none;html=1;rounded=0;entryX=0.5;entryY=0;entryDx=0;entryDy=0;exitX=0.5;exitY=1;exitDx=0;exitDy=0;" parent="1" source="bZ-zRYonK2PxEfOanbGE-73" target="bZ-zRYonK2PxEfOanbGE-75" edge="1">
          <mxGeometry width="50" height="50" relative="1" as="geometry">
            <mxPoint x="923" y="781" as="sourcePoint" />
            <mxPoint x="960" y="541" as="targetPoint" />
          </mxGeometry>
        </mxCell>
        <mxCell id="bZ-zRYonK2PxEfOanbGE-86" value="Element&#xa;&lt;div&gt;&#xa;" style="swimlane;fontStyle=0;align=center;verticalAlign=top;childLayout=stackLayout;horizontal=1;startSize=50;horizontalStack=0;resizeParent=1;resizeLast=0;collapsible=1;marginBottom=0;rounded=0;shadow=0;strokeWidth=1;fontSize=11;" parent="1" vertex="1">
          <mxGeometry x="428" y="360" width="100" height="40" as="geometry">
            <mxRectangle x="130" y="380" width="160" height="26" as="alternateBounds" />
          </mxGeometry>
        </mxCell>
        <mxCell id="bZ-zRYonK2PxEfOanbGE-87" value="Element&#xa;&lt;div&gt;&#xa;" style="swimlane;fontStyle=0;align=center;verticalAlign=top;childLayout=stackLayout;horizontal=1;startSize=50;horizontalStack=0;resizeParent=1;resizeLast=0;collapsible=1;marginBottom=0;rounded=0;shadow=0;strokeWidth=1;fontSize=11;" parent="1" vertex="1">
          <mxGeometry x="549" y="360" width="100" height="40" as="geometry">
            <mxRectangle x="130" y="380" width="160" height="26" as="alternateBounds" />
          </mxGeometry>
        </mxCell>
        <mxCell id="bZ-zRYonK2PxEfOanbGE-88" value="Element&#xa;&lt;a&gt;&#xa;" style="swimlane;fontStyle=0;align=center;verticalAlign=top;childLayout=stackLayout;horizontal=1;startSize=50;horizontalStack=0;resizeParent=1;resizeLast=0;collapsible=1;marginBottom=0;rounded=0;shadow=0;strokeWidth=1;fontSize=11;" parent="1" vertex="1">
          <mxGeometry x="453" y="420" width="50" height="40" as="geometry">
            <mxRectangle x="130" y="380" width="160" height="26" as="alternateBounds" />
          </mxGeometry>
        </mxCell>
        <mxCell id="bZ-zRYonK2PxEfOanbGE-89" value="Element&#xa;&lt;img&gt;&#xa;" style="swimlane;fontStyle=0;align=center;verticalAlign=top;childLayout=stackLayout;horizontal=1;startSize=50;horizontalStack=0;resizeParent=1;resizeLast=0;collapsible=1;marginBottom=0;rounded=0;shadow=0;strokeWidth=1;fontSize=11;" parent="1" vertex="1">
          <mxGeometry x="484" y="480" width="50" height="40" as="geometry">
            <mxRectangle x="130" y="380" width="160" height="26" as="alternateBounds" />
          </mxGeometry>
        </mxCell>
        <mxCell id="bZ-zRYonK2PxEfOanbGE-90" value="Text:&#xa;&quot;{AddCard}&quot;&#xa;&#xa;" style="swimlane;fontStyle=0;align=center;verticalAlign=top;childLayout=stackLayout;horizontal=1;startSize=50;horizontalStack=0;resizeParent=1;resizeLast=0;collapsible=1;marginBottom=0;rounded=0;shadow=0;strokeWidth=1;fontSize=11;" parent="1" vertex="1">
          <mxGeometry x="404" y="480" width="70" height="40" as="geometry">
            <mxRectangle x="130" y="380" width="160" height="26" as="alternateBounds" />
          </mxGeometry>
        </mxCell>
        <mxCell id="bZ-zRYonK2PxEfOanbGE-91" value="" style="endArrow=none;html=1;rounded=0;exitX=0.5;exitY=1;exitDx=0;exitDy=0;entryX=0.5;entryY=0;entryDx=0;entryDy=0;" parent="1" source="bZ-zRYonK2PxEfOanbGE-86" target="bZ-zRYonK2PxEfOanbGE-88" edge="1">
          <mxGeometry width="50" height="50" relative="1" as="geometry">
            <mxPoint x="678" y="410" as="sourcePoint" />
            <mxPoint x="728" y="360" as="targetPoint" />
          </mxGeometry>
        </mxCell>
        <mxCell id="bZ-zRYonK2PxEfOanbGE-92" value="" style="endArrow=none;html=1;rounded=0;exitX=0.5;exitY=1;exitDx=0;exitDy=0;entryX=0.5;entryY=0;entryDx=0;entryDy=0;" parent="1" source="bZ-zRYonK2PxEfOanbGE-88" target="bZ-zRYonK2PxEfOanbGE-89" edge="1">
          <mxGeometry width="50" height="50" relative="1" as="geometry">
            <mxPoint x="678" y="410" as="sourcePoint" />
            <mxPoint x="653" y="480" as="targetPoint" />
          </mxGeometry>
        </mxCell>
        <mxCell id="bZ-zRYonK2PxEfOanbGE-93" value="" style="endArrow=none;html=1;rounded=0;exitX=0.5;exitY=1;exitDx=0;exitDy=0;entryX=0.5;entryY=0;entryDx=0;entryDy=0;" parent="1" source="bZ-zRYonK2PxEfOanbGE-88" edge="1">
          <mxGeometry width="50" height="50" relative="1" as="geometry">
            <mxPoint x="678" y="410" as="sourcePoint" />
            <mxPoint x="438" y="480" as="targetPoint" />
          </mxGeometry>
        </mxCell>
        <mxCell id="bZ-zRYonK2PxEfOanbGE-94" value="Element&#xa;&lt;a&gt;&#xa;" style="swimlane;fontStyle=0;align=center;verticalAlign=top;childLayout=stackLayout;horizontal=1;startSize=50;horizontalStack=0;resizeParent=1;resizeLast=0;collapsible=1;marginBottom=0;rounded=0;shadow=0;strokeWidth=1;fontSize=11;" parent="1" vertex="1">
          <mxGeometry x="574" y="430" width="50" height="40" as="geometry">
            <mxRectangle x="130" y="380" width="160" height="26" as="alternateBounds" />
          </mxGeometry>
        </mxCell>
        <mxCell id="bZ-zRYonK2PxEfOanbGE-95" value="Element&#xa;&lt;img&gt;&#xa;" style="swimlane;fontStyle=0;align=center;verticalAlign=top;childLayout=stackLayout;horizontal=1;startSize=50;horizontalStack=0;resizeParent=1;resizeLast=0;collapsible=1;marginBottom=0;rounded=0;shadow=0;strokeWidth=1;fontSize=11;" parent="1" vertex="1">
          <mxGeometry x="624" y="490" width="50" height="40" as="geometry">
            <mxRectangle x="130" y="380" width="160" height="26" as="alternateBounds" />
          </mxGeometry>
        </mxCell>
        <mxCell id="bZ-zRYonK2PxEfOanbGE-96" value="Text:&#xa;&quot;{EditCard}&quot;&#xa;&#xa;" style="swimlane;fontStyle=0;align=center;verticalAlign=top;childLayout=stackLayout;horizontal=1;startSize=50;horizontalStack=0;resizeParent=1;resizeLast=0;collapsible=1;marginBottom=0;rounded=0;shadow=0;strokeWidth=1;fontSize=11;" parent="1" vertex="1">
          <mxGeometry x="539" y="490" width="70" height="40" as="geometry">
            <mxRectangle x="130" y="380" width="160" height="26" as="alternateBounds" />
          </mxGeometry>
        </mxCell>
        <mxCell id="bZ-zRYonK2PxEfOanbGE-97" value="" style="endArrow=none;html=1;rounded=0;exitX=0.5;exitY=1;exitDx=0;exitDy=0;entryX=0.5;entryY=0;entryDx=0;entryDy=0;" parent="1" source="bZ-zRYonK2PxEfOanbGE-87" target="bZ-zRYonK2PxEfOanbGE-94" edge="1">
          <mxGeometry width="50" height="50" relative="1" as="geometry">
            <mxPoint x="584" y="622" as="sourcePoint" />
            <mxPoint x="784" y="472" as="targetPoint" />
          </mxGeometry>
        </mxCell>
        <mxCell id="bZ-zRYonK2PxEfOanbGE-98" value="" style="endArrow=none;html=1;rounded=0;exitX=0.5;exitY=1;exitDx=0;exitDy=0;entryX=0.5;entryY=0;entryDx=0;entryDy=0;" parent="1" source="bZ-zRYonK2PxEfOanbGE-94" target="bZ-zRYonK2PxEfOanbGE-95" edge="1">
          <mxGeometry width="50" height="50" relative="1" as="geometry">
            <mxPoint x="734" y="522" as="sourcePoint" />
            <mxPoint x="784" y="472" as="targetPoint" />
          </mxGeometry>
        </mxCell>
        <mxCell id="bZ-zRYonK2PxEfOanbGE-99" value="" style="endArrow=none;html=1;rounded=0;exitX=0.5;exitY=1;exitDx=0;exitDy=0;entryX=0.5;entryY=0;entryDx=0;entryDy=0;" parent="1" source="bZ-zRYonK2PxEfOanbGE-94" target="bZ-zRYonK2PxEfOanbGE-96" edge="1">
          <mxGeometry width="50" height="50" relative="1" as="geometry">
            <mxPoint x="734" y="522" as="sourcePoint" />
            <mxPoint x="784" y="472" as="targetPoint" />
          </mxGeometry>
        </mxCell>
        <mxCell id="bZ-zRYonK2PxEfOanbGE-105" value="&lt;br&gt;&lt;br&gt;&lt;br&gt;&lt;br&gt;" style="endArrow=none;html=1;rounded=0;exitX=0.5;exitY=0;exitDx=0;exitDy=0;" parent="1" source="bZ-zRYonK2PxEfOanbGE-86" edge="1">
          <mxGeometry x="0.1111" y="7" width="50" height="50" relative="1" as="geometry">
            <mxPoint x="473" y="406" as="sourcePoint" />
            <mxPoint x="478" y="340" as="targetPoint" />
            <mxPoint as="offset" />
          </mxGeometry>
        </mxCell>
        <mxCell id="bZ-zRYonK2PxEfOanbGE-106" value="&lt;br&gt;&lt;br&gt;&lt;br&gt;&lt;br&gt;" style="endArrow=none;html=1;rounded=0;entryX=1;entryY=0.5;entryDx=0;entryDy=0;" parent="1" target="bZ-zRYonK2PxEfOanbGE-71" edge="1">
          <mxGeometry x="0.1111" y="7" width="50" height="50" relative="1" as="geometry">
            <mxPoint x="840" y="620" as="sourcePoint" />
            <mxPoint x="800" y="620" as="targetPoint" />
            <mxPoint as="offset" />
          </mxGeometry>
        </mxCell>
        <mxCell id="bZ-zRYonK2PxEfOanbGE-107" value="Element&#xa;&lt;div&gt;&#xa;" style="swimlane;fontStyle=0;align=center;verticalAlign=top;childLayout=stackLayout;horizontal=1;startSize=50;horizontalStack=0;resizeParent=1;resizeLast=0;collapsible=1;marginBottom=0;rounded=0;shadow=0;strokeWidth=1;fontSize=11;" parent="1" vertex="1">
          <mxGeometry x="682" y="360" width="100" height="40" as="geometry">
            <mxRectangle x="130" y="380" width="160" height="26" as="alternateBounds" />
          </mxGeometry>
        </mxCell>
        <mxCell id="bZ-zRYonK2PxEfOanbGE-108" value="" style="endArrow=none;html=1;rounded=0;exitX=0.5;exitY=1;exitDx=0;exitDy=0;entryX=0.5;entryY=0;entryDx=0;entryDy=0;" parent="1" source="bZ-zRYonK2PxEfOanbGE-107" target="bZ-zRYonK2PxEfOanbGE-110" edge="1">
          <mxGeometry width="50" height="50" relative="1" as="geometry">
            <mxPoint x="888" y="210" as="sourcePoint" />
            <mxPoint x="758" y="510" as="targetPoint" />
          </mxGeometry>
        </mxCell>
        <mxCell id="bZ-zRYonK2PxEfOanbGE-110" value="Element&#xa;&lt;span&gt;&#xa;" style="swimlane;fontStyle=0;align=center;verticalAlign=top;childLayout=stackLayout;horizontal=1;startSize=50;horizontalStack=0;resizeParent=1;resizeLast=0;collapsible=1;marginBottom=0;rounded=0;shadow=0;strokeWidth=1;fontSize=11;" parent="1" vertex="1">
          <mxGeometry x="682" y="420" width="100" height="40" as="geometry">
            <mxRectangle x="130" y="380" width="160" height="26" as="alternateBounds" />
          </mxGeometry>
        </mxCell>
        <mxCell id="bZ-zRYonK2PxEfOanbGE-111" value="Template Text:&#xa;&quot;{ getTabDots }&quot;&#xa;" style="swimlane;fontStyle=0;align=center;verticalAlign=top;childLayout=stackLayout;horizontal=1;startSize=50;horizontalStack=0;resizeParent=1;resizeLast=0;collapsible=1;marginBottom=0;rounded=0;shadow=0;strokeWidth=1;fontSize=11;" parent="1" vertex="1">
          <mxGeometry x="682" y="490" width="100" height="40" as="geometry">
            <mxRectangle x="130" y="380" width="160" height="26" as="alternateBounds" />
          </mxGeometry>
        </mxCell>
        <mxCell id="bZ-zRYonK2PxEfOanbGE-112" value="" style="endArrow=none;html=1;rounded=0;exitX=0.5;exitY=1;exitDx=0;exitDy=0;entryX=0.5;entryY=0;entryDx=0;entryDy=0;" parent="1" source="bZ-zRYonK2PxEfOanbGE-110" target="bZ-zRYonK2PxEfOanbGE-111" edge="1">
          <mxGeometry width="50" height="50" relative="1" as="geometry">
            <mxPoint x="748" y="520" as="sourcePoint" />
            <mxPoint x="868" y="510" as="targetPoint" />
            <Array as="points" />
          </mxGeometry>
        </mxCell>
        <mxCell id="bZ-zRYonK2PxEfOanbGE-121" value="Facilitator?" style="rhombus;whiteSpace=wrap;html=1;fillColor=#fff2cc;strokeColor=#d6b656;" parent="1" vertex="1">
          <mxGeometry x="20" y="420" width="80" height="80" as="geometry" />
        </mxCell>
        <mxCell id="bZ-zRYonK2PxEfOanbGE-123" value="Yes" style="text;html=1;strokeColor=none;fillColor=none;align=center;verticalAlign=middle;whiteSpace=wrap;rounded=0;" parent="1" vertex="1">
          <mxGeometry x="19" y="495" width="60" height="30" as="geometry" />
        </mxCell>
        <mxCell id="bZ-zRYonK2PxEfOanbGE-127" value="" style="endArrow=none;html=1;rounded=0;" parent="1" edge="1">
          <mxGeometry x="0.1111" y="7" width="50" height="50" relative="1" as="geometry">
            <mxPoint x="101" y="981" as="sourcePoint" />
            <mxPoint x="102.00000000000023" y="981" as="targetPoint" />
            <mxPoint as="offset" />
          </mxGeometry>
        </mxCell>
        <mxCell id="bZ-zRYonK2PxEfOanbGE-42" value="Template Text:&#xa;&quot;{ toggleTimer }&quot;&#xa;&#xa;&#xa;" style="swimlane;fontStyle=0;align=center;verticalAlign=top;childLayout=stackLayout;horizontal=1;startSize=50;horizontalStack=0;resizeParent=1;resizeLast=0;collapsible=1;marginBottom=0;rounded=0;shadow=0;strokeWidth=1;fontSize=11;" parent="1" vertex="1">
          <mxGeometry x="10" y="590" width="100" height="40" as="geometry">
            <mxRectangle x="130" y="380" width="160" height="26" as="alternateBounds" />
          </mxGeometry>
        </mxCell>
        <mxCell id="bZ-zRYonK2PxEfOanbGE-129" value="" style="endArrow=none;html=1;rounded=0;exitX=0.5;exitY=0;exitDx=0;exitDy=0;entryX=0.5;entryY=1;entryDx=0;entryDy=0;" parent="1" source="bZ-zRYonK2PxEfOanbGE-40" target="bZ-zRYonK2PxEfOanbGE-121" edge="1">
          <mxGeometry width="50" height="50" relative="1" as="geometry">
            <mxPoint x="49" y="639" as="sourcePoint" />
            <mxPoint x="50" y="600" as="targetPoint" />
          </mxGeometry>
        </mxCell>
        <mxCell id="bZ-zRYonK2PxEfOanbGE-134" value="" style="endArrow=none;html=1;rounded=0;movable=1;resizable=1;rotatable=1;deletable=1;editable=1;locked=0;connectable=1;" parent="1" edge="1">
          <mxGeometry width="50" height="50" relative="1" as="geometry">
            <mxPoint x="840" y="340" as="sourcePoint" />
            <mxPoint x="120" y="340" as="targetPoint" />
          </mxGeometry>
        </mxCell>
        <mxCell id="bZ-zRYonK2PxEfOanbGE-135" value="&lt;br&gt;&lt;br&gt;&lt;br&gt;&lt;br&gt;" style="endArrow=none;html=1;rounded=0;exitX=0.5;exitY=0;exitDx=0;exitDy=0;" parent="1" edge="1">
          <mxGeometry x="0.1111" y="7" width="50" height="50" relative="1" as="geometry">
            <mxPoint x="598" y="360" as="sourcePoint" />
            <mxPoint x="598" y="340" as="targetPoint" />
            <mxPoint as="offset" />
          </mxGeometry>
        </mxCell>
        <mxCell id="bZ-zRYonK2PxEfOanbGE-136" value="&lt;br&gt;&lt;br&gt;&lt;br&gt;&lt;br&gt;" style="endArrow=none;html=1;rounded=0;exitX=0.5;exitY=0;exitDx=0;exitDy=0;" parent="1" edge="1">
          <mxGeometry x="0.1111" y="7" width="50" height="50" relative="1" as="geometry">
            <mxPoint x="731" y="360" as="sourcePoint" />
            <mxPoint x="731" y="340" as="targetPoint" />
            <mxPoint as="offset" />
          </mxGeometry>
        </mxCell>
        <mxCell id="42AeGY9QLuvjqWAliMlF-1" value="Document&#xa;Inherits from:&#xa;fe-main-template&#xa;" style="swimlane;fontStyle=2;align=center;verticalAlign=top;childLayout=stackLayout;horizontal=1;startSize=50;horizontalStack=0;resizeParent=1;resizeLast=0;collapsible=1;marginBottom=0;rounded=0;shadow=0;strokeWidth=1;fontSize=11;" vertex="1" parent="1">
          <mxGeometry x="350" width="100" height="50" as="geometry">
            <mxRectangle x="230" y="140" width="160" height="26" as="alternateBounds" />
          </mxGeometry>
        </mxCell>
      </root>
    </mxGraphModel>
  </diagram>
</mxfile>
